<svg viewBox="0 0 512 512" xmlns="http://www.w3.org/2000/svg"><path d="M0 0h512v512H0z" fill="#f7df1d"/><path d="m171 416.891 1-34.177L183 378l1-58 12-5-1-65.855h16l-1-60.715 11-8.43-1-79h18V78h36v23h19l-1 64h12v60l12 1-.617 54.433L328 283l1 68 12 1 2 64.891z" fill="#fff" stroke="#000"/><path d="M292.429 95.108h-72.857a6.072 6.072 0 0 0-6.07 6.071v80.13a6.072 6.072 0 0 0 12.142.001v-74.058h60.712v55.115a6.072 6.072 0 0 0 6.072 6.07 6.072 6.072 0 0 0 6.07-6.07V101.18a6.072 6.072 0 0 0-6.07-6.07z"/><path d="M308.308 157.11a6.073 6.073 0 0 0-5.21-1.106l-97.142 24.286a6.07 6.07 0 0 0-4.6 5.889v61.823a6.072 6.072 0 0 0 6.072 6.07 6.072 6.072 0 0 0 6.07-6.07v-57.08l85.002-21.251v53.465a6.072 6.072 0 0 0 6.07 6.07 6.072 6.072 0 0 0 6.072-6.07v-61.242a6.067 6.067 0 0 0-2.334-4.785z"/><path d="M320.452 217.824a6.071 6.071 0 0 0-5.21-1.105l-121.427 30.356a6.072 6.072 0 0 0-4.6 5.89v62.122a6.072 6.072 0 0 0 6.071 6.07 6.073 6.073 0 0 0 6.07-6.074v-57.38l109.286-27.321v54.317a6.072 6.072 0 0 0 6.07 6.07 6.072 6.072 0 0 0 6.071-6.07v-62.092a6.058 6.058 0 0 0-2.331-4.783z"/><path d="M332.594 278.537a6.083 6.083 0 0 0-5.209-1.105l-145.713 36.43a6.068 6.068 0 0 0-4.6 5.888v56.893a6.071 6.071 0 1 0 12.142 0v-52.154l133.57-33.392v60.299a6.072 6.072 0 0 0 6.07 6.07 6.072 6.072 0 0 0 6.07-6.07v-68.073a6.062 6.062 0 0 0-2.33-4.786z"/><path d="M344.894 345.45a6.072 6.072 0 0 0-4.962-1.32l-170 30.357a6.072 6.072 0 0 0-5.003 5.976v36.429a6.072 6.072 0 0 0 6.07 6.07h169.998a6.07 6.07 0 0 0 6.07-6.07v-66.786a6.065 6.065 0 0 0-2.173-4.657zm-9.966 65.37H177.072v-25.27l157.856-28.19zm-91.07-291.426a6.072 6.072 0 0 0-6.07 6.072v24.285a6.072 6.072 0 0 0 6.07 6.07 6.072 6.072 0 0 0 6.07-6.07v-24.285a6.072 6.072 0 0 0-6.07-6.072zm24.285 0a6.072 6.072 0 0 0-6.072 6.072v24.285a6.072 6.072 0 0 0 6.072 6.07 6.072 6.072 0 0 0 6.07-6.07v-24.285a6.072 6.072 0 0 0-6.07-6.072zm6.072-48.571h-36.428a6.072 6.072 0 0 0-6.071 6.071v24.285a6.072 6.072 0 0 0 6.071 6.07h36.428a6.072 6.072 0 0 0 6.071-6.07V76.894a6.072 6.072 0 0 0-6.071-6.071zm-6.072 24.285h-24.286V82.967h24.286z"/><path d="M376.707 410.82H135.293c-2.38 0-4.311 2.72-4.311 6.072s1.931 6.07 4.31 6.07h241.415c2.38 0 4.311-2.719 4.311-6.07s-1.931-6.071-4.31-6.071z"/></svg>