<?xml version="1.0" encoding="UTF-8" standalone="no"?><!DOCTYPE svg PUBLIC "-//W3C//DTD SVG 1.1//EN" "http://www.w3.org/Graphics/SVG/1.1/DTD/svg11.dtd"><svg width="556" height="120" viewBox="0 0 556 120" version="1.1" xmlns="http://www.w3.org/2000/svg" xmlns:xlink="http://www.w3.org/1999/xlink" xml:space="preserve" xmlns:serif="http://www.serif.com/" style="fill-rule:evenodd;clip-rule:evenodd;stroke-linejoin:round;stroke-miterlimit:2;"><rect x="436" y="0" width="120.013" height="120.013" style="fill:#f7df1e;"/><g transform="matrix(7.72189,0,0,7.72189,-3921.37,-2745.37)"><g transform="matrix(12.4322,0,0,12.4322,525.079,368.546)"><path d="M0.021,-0.512l0.06,0l0.157,0.451l0.004,0l0.156,-0.451l0.058,0l-0.185,0.512l-0.065,0l-0.185,-0.512Z" style="fill-rule:nonzero;"/></g><g transform="matrix(12.4322,0,0,12.4322,530.885,368.546)"><path d="M0.445,0c-0.022,0 -0.038,-0.006 -0.048,-0.017c-0.01,-0.011 -0.016,-0.027 -0.017,-0.046l0,-0.018l-0.005,0c-0.011,0.029 -0.03,0.051 -0.056,0.068c-0.026,0.017 -0.059,0.025 -0.099,0.025c-0.054,0 -0.096,-0.013 -0.125,-0.04c-0.029,-0.026 -0.044,-0.063 -0.044,-0.111c0,-0.045 0.016,-0.081 0.049,-0.108c0.032,-0.027 0.085,-0.04 0.159,-0.04l0.118,0l0,-0.06c0,-0.085 -0.044,-0.127 -0.131,-0.127c-0.034,0 -0.062,0.007 -0.085,0.021c-0.023,0.015 -0.041,0.035 -0.055,0.062l-0.036,-0.03c0.014,-0.03 0.036,-0.055 0.065,-0.074c0.029,-0.019 0.066,-0.029 0.113,-0.029c0.06,0 0.106,0.015 0.138,0.045c0.032,0.03 0.048,0.072 0.048,0.126l0,0.303l0.069,0l0,0.05l-0.058,0Zm-0.217,-0.037c0.021,0 0.04,-0.003 0.058,-0.008c0.018,-0.005 0.034,-0.013 0.047,-0.023c0.014,-0.009 0.025,-0.021 0.032,-0.035c0.008,-0.013 0.012,-0.029 0.012,-0.046l0,-0.095l-0.12,0c-0.051,0 -0.089,0.008 -0.112,0.024c-0.023,0.017 -0.034,0.039 -0.034,0.068l0,0.024c0,0.03 0.011,0.053 0.032,0.068c0.021,0.015 0.05,0.023 0.085,0.023Z" style="fill-rule:nonzero;"/></g><g transform="matrix(12.4322,0,0,12.4322,537.325,368.546)"><path d="M0.021,-0.512l0.06,0l0.157,0.451l0.004,0l0.156,-0.451l0.058,0l-0.185,0.512l-0.065,0l-0.185,-0.512Z" style="fill-rule:nonzero;"/></g><g transform="matrix(12.4322,0,0,12.4322,543.242,368.546)"><path d="M0.121,-0.651c-0.013,0 -0.023,-0.003 -0.029,-0.01c-0.007,-0.007 -0.01,-0.015 -0.01,-0.026l0,-0.01c0,-0.011 0.003,-0.019 0.009,-0.026c0.007,-0.007 0.017,-0.01 0.03,-0.01c0.013,0 0.023,0.003 0.029,0.01c0.007,0.007 0.01,0.015 0.01,0.026l0,0.01c0,0.011 -0.003,0.019 -0.01,0.026c-0.006,0.007 -0.016,0.01 -0.029,0.01Zm-0.028,0.139l0.057,0l0,0.512l-0.057,0l0,-0.512Z" style="fill-rule:nonzero;"/></g><g transform="matrix(12.4322,0,0,12.4322,546.263,368.546)"><path d="M0.156,0c-0.021,0 -0.036,-0.006 -0.047,-0.017c-0.011,-0.011 -0.016,-0.026 -0.016,-0.045l0,-0.678l0.057,0l0,0.69l0.079,0l0,0.05l-0.073,0Z" style="fill-rule:nonzero;"/></g><g transform="matrix(12.4322,0,0,12.4322,549.545,368.546)"><path d="M0.275,0.012c-0.034,0 -0.065,-0.006 -0.092,-0.018c-0.027,-0.012 -0.051,-0.03 -0.07,-0.053c-0.019,-0.023 -0.034,-0.051 -0.045,-0.084c-0.011,-0.033 -0.016,-0.071 -0.016,-0.113c0,-0.042 0.005,-0.079 0.016,-0.112c0.011,-0.033 0.026,-0.062 0.045,-0.085c0.019,-0.022 0.043,-0.04 0.07,-0.053c0.027,-0.012 0.058,-0.018 0.092,-0.018c0.034,0 0.065,0.006 0.092,0.018c0.027,0.013 0.051,0.031 0.07,0.053c0.019,0.024 0.034,0.052 0.045,0.085c0.011,0.033 0.016,0.07 0.016,0.112c0,0.042 -0.005,0.08 -0.016,0.113c-0.011,0.033 -0.026,0.062 -0.045,0.085c-0.019,0.023 -0.043,0.04 -0.07,0.052c-0.027,0.012 -0.058,0.018 -0.092,0.018Zm0,-0.051c0.05,0 0.09,-0.016 0.118,-0.047c0.03,-0.031 0.044,-0.077 0.044,-0.138l0,-0.064c0,-0.06 -0.014,-0.106 -0.043,-0.137c-0.029,-0.032 -0.069,-0.048 -0.119,-0.048c-0.05,0 -0.09,0.016 -0.119,0.047c-0.029,0.031 -0.043,0.077 -0.043,0.138l0,0.064c0,0.06 0.014,0.106 0.043,0.138c0.029,0.031 0.069,0.047 0.119,0.047Z" style="fill-rule:nonzero;"/></g><g transform="matrix(12.4322,0,0,12.4322,556.383,368.546)"><path d="M0.093,0l0,-0.512l0.057,0l0,0.081l0.003,0c0.011,-0.027 0.029,-0.049 0.053,-0.067c0.024,-0.017 0.057,-0.026 0.098,-0.026c0.055,0 0.097,0.017 0.128,0.05c0.03,0.034 0.045,0.082 0.045,0.145l0,0.329l-0.057,0l0,-0.319c0,-0.052 -0.011,-0.091 -0.033,-0.116c-0.023,-0.025 -0.055,-0.038 -0.098,-0.038c-0.018,0 -0.035,0.002 -0.052,0.007c-0.017,0.005 -0.032,0.012 -0.045,0.021c-0.013,0.009 -0.023,0.021 -0.031,0.035c-0.007,0.015 -0.011,0.031 -0.011,0.05l0,0.36l-0.057,0Z" style="fill-rule:nonzero;"/></g><g transform="matrix(12.4322,0,0,12.4322,563.382,368.546)"><path d="M0.136,0.012c-0.021,0 -0.037,-0.005 -0.047,-0.016c-0.009,-0.011 -0.014,-0.025 -0.014,-0.042l0,-0.013c0,-0.017 0.005,-0.031 0.014,-0.042c0.01,-0.011 0.026,-0.016 0.047,-0.016c0.021,0 0.037,0.005 0.046,0.016c0.01,0.011 0.015,0.025 0.015,0.042l0,0.013c0,0.017 -0.005,0.031 -0.015,0.042c-0.009,0.011 -0.025,0.016 -0.046,0.016Z" style="fill-rule:nonzero;"/></g><g transform="matrix(12.4322,0,0,12.4322,566.764,368.546)"><path d="M0.085,-0.516l0.08,0l0,0.596c0,0.036 -0.009,0.065 -0.027,0.087c-0.018,0.022 -0.046,0.033 -0.085,0.033l-0.052,0l0,-0.07l0.084,0l0,-0.646Zm0.04,-0.121c-0.017,0 -0.03,-0.004 -0.037,-0.012c-0.008,-0.009 -0.012,-0.02 -0.012,-0.033l0,-0.013c0,-0.013 0.004,-0.024 0.012,-0.032c0.007,-0.009 0.02,-0.013 0.037,-0.013c0.017,0 0.03,0.004 0.038,0.013c0.007,0.008 0.011,0.019 0.011,0.032l0,0.013c0,0.013 -0.004,0.024 -0.012,0.033c-0.007,0.008 -0.02,0.012 -0.037,0.012Z" style="fill-rule:nonzero;"/></g><g transform="matrix(12.4322,0,0,12.4322,569.872,368.546)"><path d="M0.24,0.012c-0.048,0 -0.088,-0.009 -0.12,-0.028c-0.033,-0.018 -0.061,-0.042 -0.084,-0.073l0.057,-0.046c0.02,0.025 0.042,0.045 0.067,0.059c0.025,0.013 0.053,0.02 0.086,0.02c0.034,0 0.061,-0.007 0.08,-0.022c0.019,-0.015 0.028,-0.035 0.028,-0.062c0,-0.02 -0.007,-0.037 -0.02,-0.051c-0.013,-0.015 -0.036,-0.025 -0.07,-0.03l-0.041,-0.006c-0.024,-0.003 -0.046,-0.009 -0.066,-0.015c-0.02,-0.007 -0.038,-0.017 -0.053,-0.029c-0.014,-0.011 -0.026,-0.026 -0.035,-0.043c-0.008,-0.017 -0.012,-0.038 -0.012,-0.062c0,-0.025 0.005,-0.048 0.014,-0.067c0.009,-0.019 0.022,-0.034 0.038,-0.047c0.017,-0.013 0.036,-0.022 0.059,-0.028c0.023,-0.007 0.047,-0.01 0.073,-0.01c0.042,0 0.077,0.007 0.106,0.022c0.028,0.015 0.053,0.035 0.074,0.061l-0.053,0.048c-0.011,-0.016 -0.028,-0.03 -0.05,-0.043c-0.022,-0.014 -0.05,-0.02 -0.083,-0.02c-0.033,0 -0.058,0.007 -0.075,0.022c-0.017,0.014 -0.026,0.033 -0.026,0.058c0,0.025 0.009,0.044 0.026,0.055c0.017,0.011 0.041,0.02 0.073,0.025l0.04,0.006c0.057,0.009 0.098,0.025 0.122,0.049c0.024,0.025 0.036,0.057 0.036,0.096c0,0.05 -0.017,0.089 -0.051,0.118c-0.034,0.029 -0.081,0.043 -0.14,0.043Z" style="fill-rule:nonzero;"/></g></g></svg>
