<?xml version="1.0" encoding="UTF-8" standalone="no"?><!DOCTYPE svg PUBLIC "-//W3C//DTD SVG 1.1//EN" "http://www.w3.org/Graphics/SVG/1.1/DTD/svg11.dtd"><svg width="100%" height="100%" viewBox="0 0 500 500" version="1.1" xmlns="http://www.w3.org/2000/svg" xmlns:xlink="http://www.w3.org/1999/xlink" xml:space="preserve" xmlns:serif="http://www.serif.com/" style="fill-rule:evenodd;clip-rule:evenodd;stroke-linejoin:round;stroke-miterlimit:1.41421;"><path d="M285.575,92.879l-71.149,0c-3.272,0 -5.928,2.656 -5.928,5.929l0,78.251c0,3.273 2.656,5.929 5.928,5.929c3.273,0 5.929,-2.654 5.929,-5.927l0,-72.323l59.29,0l0,53.824c0,3.272 2.656,5.928 5.929,5.928c3.272,0 5.928,-2.656 5.928,-5.928l0,-59.754c0.002,-3.271 -2.654,-5.929 -5.927,-5.929Z" style="fill-rule:nonzero;"/><path d="M301.082,153.427c-1.444,-1.124 -3.323,-1.524 -5.088,-1.079l-94.865,23.716c-2.638,0.658 -4.492,3.029 -4.492,5.751l0,60.374c0,3.273 2.656,5.929 5.929,5.929c3.272,0 5.928,-2.656 5.928,-5.929l0,-55.741l83.01,-20.754l0,52.212c0,3.272 2.656,5.928 5.928,5.928c3.273,0 5.929,-2.656 5.929,-5.928l0,-59.806c0.002,-1.826 -0.841,-3.549 -2.279,-4.673Z" style="fill-rule:nonzero;"/><path d="M312.941,212.719c-1.444,-1.124 -3.32,-1.524 -5.088,-1.079l-118.581,29.644c-2.638,0.659 -4.492,3.03 -4.492,5.752l0,60.666c0,3.272 2.656,5.928 5.929,5.928c3.272,0 5.928,-2.656 5.928,-5.932l0,-56.035l106.724,-26.681l0,53.044c0,3.273 2.656,5.929 5.928,5.929c3.273,0 5.929,-2.656 5.929,-5.929l0,-60.636c0.002,-1.826 -0.839,-3.549 -2.277,-4.671Z" style="fill-rule:nonzero;"/><path d="M324.799,272.009c-1.44,-1.124 -3.323,-1.52 -5.087,-1.079l-142.298,35.575c-2.639,0.658 -4.492,3.029 -4.492,5.751l0,55.559c0,3.273 2.656,5.929 5.928,5.929c3.273,0 5.929,-2.653 5.929,-5.929l0,-50.931l130.439,-32.61l0,58.886c0,3.272 2.656,5.928 5.928,5.928c3.273,0 5.929,-2.656 5.929,-5.928l0,-66.477c0.003,-1.829 -0.839,-3.55 -2.276,-4.674Z" style="fill-rule:nonzero;"/><path d="M336.811,337.353c-1.343,-1.126 -3.118,-1.595 -4.846,-1.289l-166.016,29.646c-2.828,0.507 -4.886,2.965 -4.886,5.836l0,35.575c0,3.273 2.656,5.928 5.928,5.928l166.014,0c3.273,0 5.929,-2.655 5.927,-5.928l0,-65.221c0.002,-1.754 -0.775,-3.42 -2.121,-4.547Zm-9.733,63.839l-154.156,0l0,-24.679l154.156,-27.529l0,52.208Z" style="fill-rule:nonzero;"/><path d="M238.142,116.596c-3.272,0 -5.928,2.656 -5.928,5.929l0,23.716c0,3.272 2.656,5.928 5.928,5.928c3.273,0 5.929,-2.656 5.929,-5.928l0,-23.716c0,-3.273 -2.656,-5.929 -5.929,-5.929Z" style="fill-rule:nonzero;"/><path d="M261.858,116.596c-3.273,0 -5.929,2.656 -5.929,5.929l0,23.716c0,3.272 2.656,5.928 5.929,5.928c3.272,0 5.928,-2.656 5.928,-5.928l0,-23.716c0.002,-3.273 -2.656,-5.929 -5.928,-5.929Z" style="fill-rule:nonzero;"/><path d="M267.788,69.163l-35.574,0c-3.273,0 -5.929,2.656 -5.929,5.929l0,23.716c0,3.272 2.656,5.928 5.929,5.928l35.574,0c3.273,0 5.929,-2.656 5.929,-5.928l0,-23.716c0,-3.273 -2.656,-5.929 -5.929,-5.929Zm-5.93,23.716l-23.716,0l0,-11.857l23.716,0l0,11.857Z" style="fill-rule:nonzero;"/><path d="M367.878,401.192l-235.756,0c-2.324,0 -4.21,2.656 -4.21,5.929c0,3.273 1.886,5.928 4.21,5.928l235.756,0c2.324,0 4.21,-2.655 4.21,-5.928c0,-3.273 -1.886,-5.929 -4.21,-5.929Z" style="fill-rule:nonzero;"/></svg>