<svg clip-rule="evenodd" fill-rule="evenodd" stroke-linejoin="round" stroke-miterlimit="2" viewBox="0 0 500 500" xmlns="http://www.w3.org/2000/svg"><g fill-rule="nonzero"><path d="m367.878 401.192h-235.756c-2.324 0-4.21 2.656-4.21 5.929s1.886 5.928 4.21 5.928h235.756c2.324 0 4.21-2.655 4.21-5.928s-1.886-5.929-4.21-5.929z"/><path d="m336.859 337.393c-1.118-1.007-3.076-1.679-4.894-1.329l-166.408 30.07c-2.639.658-4.492 3.029-4.492 5.751v41.164h11.828l.029-36.536 154.156-27.529v64.065h11.857l-.003-71.149c.003-1.829-.776-3.337-2.073-4.507z"/><path d="m324.799 272.009c-1.44-1.124-3.323-1.52-5.087-1.079l-142.298 35.575c-2.639.658-4.492 3.029-4.492 5.751v64.257l11.812-2.109.045-57.52 130.439-32.61v66.828l11.857-2.117v-72.302c.003-1.829-.839-3.55-2.276-4.674z"/><path d="m312.941 212.719c-1.444-1.124-3.32-1.524-5.088-1.079l-118.581 29.644c-2.638.659-4.492 3.03-4.492 5.752v69.848l11.857-2.965v-62.256l106.724-26.681v62.256l11.857-2.964v-66.884c.002-1.826-.839-3.549-2.277-4.671z"/><path d="m301.082 153.427c-1.444-1.124-3.323-1.524-5.088-1.079l-94.865 23.716c-2.638.658-4.492 3.029-4.492 5.751v69.848l11.857-2.964v-62.251l83.01-20.754v62.252l11.845-2.961.012-66.885c.002-1.826-.841-3.549-2.279-4.673z"/><path d="m285.575 92.879h-71.149c-3.272 0-5.928 2.656-5.928 5.929v87.639l11.857-2.964v-78.745h59.29v63.921l11.857-2.964v-66.887c.002-3.271-2.654-5.929-5.927-5.929z"/><path d="m238.142 116.596c-3.272 0-5.928 2.656-5.928 5.929v23.716c0 3.272 2.656 5.928 5.928 5.928 3.273 0 5.929-2.656 5.929-5.928v-23.716c0-3.273-2.656-5.929-5.929-5.929z"/><path d="m261.858 116.596c-3.273 0-5.929 2.656-5.929 5.929v23.716c0 3.272 2.656 5.928 5.929 5.928 3.272 0 5.928-2.656 5.928-5.928v-23.716c.002-3.273-2.656-5.929-5.928-5.929z"/><path d="m267.79 69.163h-35.577c-3.272 0-5.928 2.656-5.928 5.929v29.646h11.857v-23.716h23.718v23.716l11.857-.002v-29.644c.002-3.271-2.654-5.929-5.927-5.929z"/></g></svg>