<svg clip-rule="evenodd" fill-rule="evenodd" stroke-linejoin="round" stroke-miterlimit="2" viewBox="0 0 500 500" xmlns="http://www.w3.org/2000/svg"><path d="M327.078 357.878l-154.156 27.529v24.679h154.156zM315.218 293.168l-130.439 32.61.001 45.463 130.438-23.292zM303.361 233.876l-106.724 26.681v50.036l106.724-26.681zM291.502 174.588l-83.008 20.754.004 50.03 83.006-20.751zM279.645 113.632h-59.29v66.52l59.29-14.823zM238.142 89.916h23.716v11.857h-23.716z" fill="#fff"/><g fill-rule="nonzero"><path d="M367.878 410.086H132.122c-2.324 0-4.21 2.656-4.21 5.929s1.886 5.928 4.21 5.928h235.756c2.324 0 4.21-2.655 4.21-5.928s-1.886-5.929-4.21-5.929z"/><path d="M336.859 346.287c-1.118-1.007-3.076-1.679-4.894-1.329l-166.408 30.07a5.926 5.926 0 00-4.492 5.751v41.164h11.828l.029-36.536 154.156-27.529v64.065h11.857l-.003-71.149c.003-1.829-.776-3.337-2.073-4.507z"/><path d="M324.799 280.903a5.94 5.94 0 00-5.087-1.079l-142.298 35.575a5.926 5.926 0 00-4.492 5.751v64.257l11.812-2.109.045-57.52 130.439-32.61v66.828l11.857-2.117v-72.302a5.92 5.92 0 00-2.276-4.674z"/><path d="M312.941 221.613a5.929 5.929 0 00-5.088-1.079l-118.581 29.644a5.93 5.93 0 00-4.492 5.752v69.848l11.857-2.965v-62.256l106.724-26.681v62.256l11.857-2.964v-66.884a5.916 5.916 0 00-2.277-4.671z"/><path d="M301.082 162.321a5.931 5.931 0 00-5.088-1.079l-94.865 23.716a5.928 5.928 0 00-4.492 5.751v69.848l11.857-2.964v-62.251l83.01-20.754v62.252l11.845-2.961.012-66.885a5.925 5.925 0 00-2.279-4.673z"/><path d="M285.575 101.773h-71.149a5.93 5.93 0 00-5.928 5.929v87.639l11.857-2.964v-78.745h59.29v63.921l11.857-2.964v-66.887a5.93 5.93 0 00-5.927-5.929z"/><path d="M238.142 125.49a5.93 5.93 0 00-5.928 5.929v23.716a5.93 5.93 0 005.928 5.928 5.93 5.93 0 005.929-5.928v-23.716a5.93 5.93 0 00-5.929-5.929zM261.858 125.49a5.93 5.93 0 00-5.929 5.929v23.716a5.93 5.93 0 005.929 5.928 5.93 5.93 0 005.928-5.928v-23.716a5.93 5.93 0 00-5.928-5.929zM267.79 78.057h-35.577a5.93 5.93 0 00-5.928 5.929v29.646h11.857V89.916h23.718v23.716l11.857-.002V83.986a5.93 5.93 0 00-5.927-5.929z"/></g></svg>